<?xml version="1.0" encoding="UTF-8"?><svg id="a" xmlns="http://www.w3.org/2000/svg" viewBox="0 0 841.89 595.28"><defs><style>.b{fill: white;}</style></defs><g><path class="b" d="M271.16,296.12h-22.88v-1.54h2.53c3.21,0,5.15-.85,5.84-2.56,.34-.87,.51-2.04,.51-3.51v-16.37h-31.64v15.35c0,2.66,.41,4.47,1.22,5.45,.89,1.1,2.63,1.66,5.21,1.66h.24v1.54h-20.28v-1.54h.51c3.13,0,5.06-.77,5.8-2.33,.39-.87,.59-2.05,.59-3.55v-35.59c0-2.1-.45-3.56-1.34-4.38-.82-.74-2.31-1.18-4.5-1.34v-1.54h19.21v1.54c-3.55,0-5.62,.97-6.19,2.92-.32,1.1-.47,2.72-.47,4.85v14.05h31.64v-15.9c0-2.29-.49-3.87-1.46-4.73-.92-.79-2.55-1.18-4.89-1.18h-1.54v-1.54h20.75v1.54c-3.13,.11-5,1-5.6,2.68-.37,.97-.55,2.29-.55,3.95v33.54c0,3.6,.87,5.75,2.6,6.43,.92,.39,2.21,.59,3.87,.59h.83v1.54Z"/><path class="b" d="M352.5,283.61c0,4.26-1.72,7.68-5.17,10.26-3.13,2.37-6.89,3.55-11.28,3.55-1.89,0-4.7-.51-8.4-1.54-1.63-.45-2.58-.67-2.84-.67-.68,0-1.22,.3-1.62,.91h-1.38l-1.7-12.27h1.54c.82,3.37,2.42,6.08,4.81,8.13,2.5,2.16,5.44,3.24,8.84,3.24,3.05,0,5.63-.8,7.73-2.41,2.29-1.79,3.43-4.16,3.43-7.1,0-2.74-1.55-5.43-4.66-8.09-1.13-.97-3.83-2.81-8.09-5.52-4.18-2.63-7.1-4.76-8.76-6.39-2.97-2.92-4.46-6.04-4.46-9.35,0-4.6,2.35-8,7.06-10.18,2.18-1.03,4.63-1.54,7.34-1.54s5.38,.47,8.17,1.42c1.24,.42,2.17,.63,2.8,.63,.58,0,1.07-.28,1.46-.83h1.3l1.38,10.26h-1.38c-1.08-2.81-2.76-5.08-5.05-6.79-2.39-1.82-5.05-2.72-7.97-2.72-2.52,0-4.62,.62-6.27,1.85-1.84,1.37-2.76,3.27-2.76,5.72,0,2.68,1.53,5.3,4.58,7.85,.95,.79,3.62,2.55,8.01,5.29,4.18,2.63,7.15,4.83,8.92,6.59,2.95,3,4.42,6.23,4.42,9.71Z"/><path class="b" d="M416.37,257.73h-1.46c-.74-4.47-1.79-7.21-3.16-8.21-.71-.5-1.62-.75-2.72-.75h-14.08v39.93c0,2.26,.51,3.83,1.54,4.69,.92,.79,2.54,1.18,4.85,1.18h3v1.54h-25.45v-1.54h2.96c2.31,0,3.93-.39,4.85-1.18,1.03-.87,1.54-2.43,1.54-4.69v-39.93h-14.05c-2,0-3.49,1.05-4.46,3.16-.47,1.03-.96,2.96-1.46,5.8h-1.42l1.26-13.1h1.54c.13,.82,.97,1.22,2.53,1.22h38.86c1.52,0,2.35-.41,2.49-1.22h1.54l1.3,13.1Z"/><path class="b" d="M489.23,269.6c0,8.02-2.8,14.66-8.39,19.92-5.59,5.26-12.38,7.89-20.38,7.89-5.1,0-9.82-.99-14.16-2.96-4.63-2.13-8.31-5.19-11.05-9.19-2.63-3.84-3.94-8.22-3.94-13.14,0-5.21,1.24-9.91,3.73-14.12,2.49-4.21,6.03-7.5,10.63-9.86,4.5-2.34,9.56-3.51,15.19-3.51,7.81,0,14.49,2.38,20.04,7.14,5.55,4.76,8.33,10.71,8.33,17.83Zm-7.62,2.68c0-7.5-2.13-13.64-6.39-18.42-4.26-4.79-9.75-7.18-16.45-7.18s-11.48,2.54-15.11,7.61c-3.18,4.47-4.77,9.57-4.77,15.31,0,4.66,.95,8.93,2.84,12.82,2.02,4.16,4.92,7.38,8.68,9.67,3.58,2.21,7.5,3.31,11.76,3.31,8.26,0,14.02-3.96,17.28-11.88,1.44-3.55,2.17-7.3,2.17-11.24Z"/><path class="b" d="M565.92,297.02c-1.18,.05-2.31,.08-3.39,.08-4.79,0-8.63-.64-11.52-1.93-2.71-1.18-6.06-3.77-10.06-7.77l-5.33-5.33c-3.52-3.52-6.3-5.93-8.33-7.22-2.68,.11-4.51,.16-5.48,.16-1.05,0-2.42-.05-4.1-.16v13.65c0,3.03,.89,4.88,2.68,5.56,.89,.34,2.14,.51,3.75,.51h1.85v1.54h-22.84v-1.54h1.38c2.53,0,4.23-.48,5.13-1.44,.89-.96,1.34-2.72,1.34-5.27v-34.01c0-2.42-.42-4.1-1.26-5.05-.84-.95-2.45-1.42-4.81-1.42h-1.78v-1.54c1.05,0,3.42-.1,7.1-.32,.89-.05,1.92-.1,3.08-.16,3.42-.16,6.81-.24,10.18-.24,7.18,0,12.64,1.34,16.37,4.02,3.52,2.55,5.29,6,5.29,10.34,0,3.21-1.03,6-3.08,8.36-1.92,2.21-4.49,3.79-7.69,4.73,2.47,1.92,5.55,4.72,9.23,8.4l6.39,6.39c3.37,3.37,6.73,5.68,10.1,6.94,1.76,.66,3.69,1.07,5.8,1.22v1.46Zm-28.37-37.01c0-5.71-2.12-9.59-6.35-11.64-2.34-1.13-5.5-1.7-9.47-1.7-1.74,0-3.08,.05-4.02,.16v26.47c.92,.13,2.59,.2,5.01,.2,9.89,0,14.83-4.5,14.83-13.49Z"/><path class="b" d="M629.99,247.39c-2.45,.18-4.43,.76-5.94,1.72-1.51,.96-2.9,2.52-4.16,4.68l-13.41,22.69v12.15c0,2.24,.53,3.8,1.58,4.7,.97,.84,2.6,1.26,4.89,1.26h1.03v1.54h-22.21v-1.54h1.54c2.26,0,3.88-.39,4.85-1.18,1.08-.87,1.62-2.41,1.62-4.62v-11.4l-14.4-22.45c-1.18-1.84-2.12-3.17-2.8-3.98-1.29-1.5-2.56-2.47-3.83-2.92-1.1-.37-2.58-.58-4.42-.63v-1.54h21.5v1.54c-3.89,0-5.79,.71-5.68,2.13,.05,.74,.51,1.78,1.38,3.12l12.94,19.96,11.4-19.37c.81-1.39,1.22-2.53,1.22-3.39,0-1.63-1.79-2.45-5.37-2.45v-1.54h18.27v1.54Z"/></g><path class="b" d="M301.5,274.07l.2,.06c-.06,1.29-.11,2.59-.2,3.88-.01,.21-.22,.4-.35,.6-.64,1-1.29,2-1.94,3.01l.16,.11c.71-.91,1.41-1.82,2.24-2.89,.07,1,.05,1.7-.61,2.33-.7,.67-1.26,1.47-1.85,2.24-.18,.23-.26,.54-.23,.9,.75-.9,1.49-1.79,2.24-2.69l.17,.05c-.15,1.25-.27,2.51-.45,3.76-.13,.93-.26,1.88-.53,2.77-.18,.59-.5,1.29-.97,1.62-1.46,1.01-1.93,2.33-2.05,4.06-.2,2.9-.7,5.79-1.08,8.68-.01,.1-.06,.19-.12,.35-.8-.86-1.31-1.67-1.03-2.9,.35-1.56,.51-3.15,.77-4.82-1.02-.14-1.47-.76-1.74-1.67-.17-.56-.63-1.02-.95-1.53-1.02-1.59-1.48-2.74-1.74-4.38l.61,.25c-.8-1.75-1.55-3.4-2.32-5.07,.96,.46,1.9,1.02,2.62,1.89,.71,.86,1.5,1.61,2.72,1.83-.88-.81-1.73-1.66-2.65-2.43-1.29-1.07-2.73-2-3.39-3.93,2.16,1.42,4.17,2.75,6.36,4.19-.6-.7-1.06-1.25-1.52-1.79l.09-.1,1.22,1.09,.1-.09c-1.08-1.36-2.14-2.75-3.26-4.08-.9-1.07-1.51-2.19-1.68-3.64-.14-1.2-.69-2.35-1.08-3.52-.1-.31-.25-.61-.44-1.07,1.13,.54,2.1,1,3.27,1.56-.48-.72-.8-1.29-1.21-1.79-1.25-1.52-1.34-3.23-1.03-5.07,.09-.53-.08-1.11-.17-1.66-.11-.67-.29-1.33-.39-2-.11-.74-.15-1.5-.23-2.3l.41,.06-.33-1.14c1.01,.5,1.89,.93,2.76,1.36l.06-.11c-.87-.6-1.76-1.18-2.59-1.82-.25-.2-.46-.56-.52-.88-.18-.95-.28-1.92-.43-2.96l.57-.05c-.12-.71-.35-1.42-.34-2.13,.08-3.21-.67-6.31-1.19-9.44-.07-.41-.07-.84-.04-1.26,.1-1.09,.94-1.53,1.82-.88,2.68,1.95,5.38,3.9,6.81,7.06,.83,1.84,1.65,3.68,2.47,5.52,.13,.28,.26,.57,.41,.92,.18-.15,.3-.26,.43-.36h0c.92,1.69,1.39,3.44,1.39,5.35,0,.27,0,.55-.03,.83-.16,2.26-1.12,4.12-2.4,5.89l.16,.14c.38-.39,.78-.77,1.15-1.17,.39-.42,.76-.87,1.3-1.47,.17,.53,.48,.98,.41,1.36-.28,1.52,.09,2.97,.28,4.45,.14,1.06,.14,2.15,.14,3.22,0,.28-.19,.59-.36,.84-.6,.88-1.23,1.75-1.79,2.66,.62-.6,1.23-1.21,1.85-1.81Z"/><g><path class="b" d="M313.71,319.84c0-.72-.5-1.08-1.5-1.08v-.35h4.67c1.51,0,2.68,.26,3.5,.79,.82,.53,1.23,1.3,1.23,2.33,0,.88-.3,1.56-.91,2.05-.61,.49-1.38,.79-2.31,.91l3.52,4.35c.28,.32,.53,.56,.78,.71,.24,.15,.55,.24,.92,.26v.35h-2.87l-4.22-5.45-.99,.03v4c0,.72,.52,1.08,1.56,1.08v.35h-4.86v-.35c1,0,1.5-.36,1.5-1.08v-8.9Zm1.81,4.25c1.4-.06,2.44-.27,3.13-.63s1.03-1.01,1.03-1.92c0-.83-.26-1.45-.78-1.85-.52-.4-1.21-.6-2.07-.6-.44,0-.74,.01-.9,.04s-.27,.1-.33,.21c-.06,.11-.09,.31-.09,.59v4.17Z"/><path class="b" d="M335.6,330.17v-.35c1.04,0,1.56-.36,1.56-1.08v-8.9c0-.72-.52-1.08-1.56-1.08v-.35h9.41v2.53h-.37c-.1-.52-.32-.95-.65-1.29-.33-.34-.79-.51-1.37-.51h-2.87c-.23,0-.42,.06-.56,.18s-.22,.29-.22,.51v3.82h2.5c.69,0,1.23-.12,1.62-.37s.59-.7,.59-1.35h.37v4.17h-.37c0-.65-.2-1.1-.58-1.35-.39-.25-.93-.38-1.62-.38h-2.5v4.36c0,.46,.15,.7,.45,.7h2.37c.62,0,1.12-.04,1.52-.12,.4-.08,.79-.28,1.17-.62s.73-.85,1.01-1.55h.49l-.81,3.01h-9.57Z"/><path class="b" d="M358.53,326.59h.4c.29,.9,.76,1.65,1.39,2.25s1.4,.9,2.29,.9c.6,0,1.09-.19,1.49-.57,.39-.38,.59-.85,.59-1.41,0-.22-.03-.43-.09-.64-.15-.53-.44-.96-.87-1.28s-1.1-.74-2.01-1.27-1.59-1.04-2.02-1.53-.66-1.12-.66-1.89c0-.87,.3-1.58,.9-2.13,.6-.55,1.35-.83,2.24-.83,.5,0,1.03,.1,1.58,.3s.88,.3,.97,.3c.27,0,.46-.2,.59-.59h.37l.41,3.77h-.46c-.13-.55-.35-1.06-.66-1.53s-.68-.83-1.12-1.11-.92-.41-1.45-.41c-.56,0-1.01,.15-1.35,.44s-.51,.71-.51,1.25c0,.75,.63,1.49,1.88,2.23,1.18,.71,1.98,1.22,2.42,1.51s.82,.67,1.13,1.13,.48,1.02,.48,1.68c0,.87-.34,1.63-1.01,2.28-.67,.65-1.58,.97-2.72,.97-.37,0-.69-.04-.98-.11s-.62-.16-.99-.28c-.37-.12-.64-.18-.8-.18-.32,0-.49,.19-.54,.56h-.37l-.54-3.82Z"/><path class="b" d="M387.08,330.17h-4.92v-.35c1.04,0,1.56-.36,1.56-1.08v-9.57h-1.29c-.55,0-.96,.04-1.25,.11-.29,.07-.54,.27-.75,.58-.22,.32-.39,.84-.53,1.57h-.4l.11-3.01h10.03l.11,3.01h-.43c-.12-.71-.29-1.23-.51-1.56s-.47-.52-.76-.59c-.29-.07-.71-.11-1.26-.11h-1.26v9.57c0,.72,.52,1.08,1.56,1.08v.35Z"/><path class="b" d="M412.44,328.1c.26,.58,.5,1.01,.72,1.29s.54,.43,.97,.43v.35h-4.52v-.35c.45-.01,.77-.06,.96-.15,.18-.09,.28-.23,.28-.44,0-.22-.14-.68-.43-1.37l-.64-1.54h-4.65c-.04,.13-.16,.43-.35,.91s-.34,.85-.44,1.13-.15,.52-.15,.73c0,.49,.41,.73,1.21,.73v.35h-3.52v-.35c.49-.04,.88-.28,1.16-.73s.65-1.23,1.13-2.37l3.6-8.55h.35l4.33,9.92Zm-6.99-2.5h4.08l-2.07-4.87-2.02,4.87Z"/><path class="b" d="M427.85,319.84c0-.72-.52-1.08-1.56-1.08v-.35h4.92v.35c-1.04,0-1.56,.36-1.56,1.08v5.97c0,.93,.1,1.68,.31,2.23s.53,.96,.98,1.21,1.04,.38,1.78,.38c1.02,0,1.77-.21,2.26-.64,.49-.43,.79-.93,.9-1.5s.17-1.25,.17-2.05v-5.59c0-.72-.56-1.08-1.67-1.08v-.35h4.12v.35c-1.11,0-1.67,.36-1.67,1.08v5.59c0,.77-.05,1.43-.14,1.96s-.3,1.01-.61,1.45-.79,.81-1.43,1.11c-.64,.31-1.39,.46-2.25,.46-1.61,0-2.77-.38-3.48-1.14-.71-.76-1.06-1.96-1.06-3.6v-5.84Z"/><path class="b" d="M452.1,319.84c0-.72-.5-1.08-1.5-1.08v-.35h4.67c1.51,0,2.68,.26,3.5,.79,.82,.53,1.23,1.3,1.23,2.33,0,.88-.3,1.56-.91,2.05-.61,.49-1.38,.79-2.31,.91l3.52,4.35c.28,.32,.53,.56,.78,.71s.55,.24,.92,.26v.35h-2.87l-4.22-5.45-.99,.03v4c0,.72,.52,1.08,1.56,1.08v.35h-4.86v-.35c1,0,1.5-.36,1.5-1.08v-8.9Zm1.81,4.25c1.4-.06,2.44-.27,3.13-.63s1.03-1.01,1.03-1.92c0-.83-.26-1.45-.78-1.85s-1.21-.6-2.07-.6c-.44,0-.74,.01-.9,.04s-.27,.1-.33,.21c-.06,.11-.09,.31-.09,.59v4.17Z"/><path class="b" d="M484.6,328.1c.26,.58,.5,1.01,.72,1.29s.54,.43,.97,.43v.35h-4.52v-.35c.45-.01,.77-.06,.96-.15,.18-.09,.28-.23,.28-.44,0-.22-.14-.68-.43-1.37l-.64-1.54h-4.65c-.04,.13-.16,.43-.35,.91-.2,.48-.34,.85-.44,1.13s-.15,.52-.15,.73c0,.49,.41,.73,1.21,.73v.35h-3.52v-.35c.49-.04,.88-.28,1.16-.73s.65-1.23,1.13-2.37l3.6-8.55h.35l4.33,9.92Zm-6.99-2.5h4.08l-2.07-4.87-2.02,4.87Z"/><path class="b" d="M509.01,330.41h-.27l-7.88-9.76v8.09c0,.72,.57,1.08,1.72,1.08v.35h-4.22v-.35c1.15,0,1.72-.36,1.72-1.08v-9.01l-.14-.19c-.31-.34-.55-.55-.72-.64s-.46-.14-.86-.14v-.35h3.04l6.83,8.55v-7.13c0-.72-.57-1.08-1.72-1.08v-.35h4.22v.35c-1.15,0-1.72,.36-1.72,1.08v10.57Z"/><path class="b" d="M530.41,330.17h-4.92v-.35c1.04,0,1.56-.36,1.56-1.08v-9.57h-1.29c-.55,0-.96,.04-1.25,.11-.29,.07-.54,.27-.75,.58-.22,.32-.39,.84-.53,1.57h-.4l.11-3.01h10.03l.11,3.01h-.43c-.12-.71-.29-1.23-.51-1.56-.22-.32-.47-.52-.76-.59-.29-.07-.71-.11-1.26-.11h-1.26v9.57c0,.72,.52,1.08,1.56,1.08v.35Z"/></g></svg>
