<?xml version="1.0" encoding="UTF-8"?><svg id="a" xmlns="http://www.w3.org/2000/svg" viewBox="0 0 841.89 595.28"><defs><style>.b{fill:#1d1d1b;}</style></defs><path class="b" d="M452.96,343.55h-54.92v-3.69h6.06c7.7,0,12.37-2.05,14.01-6.16,.82-2.08,1.23-4.89,1.23-8.43v-39.29h-75.94v36.83c0,6.38,.98,10.73,2.94,13.07,2.14,2.65,6.31,3.98,12.5,3.98h.57v3.69h-48.67v-3.69h1.23c7.51,0,12.15-1.86,13.92-5.59,.95-2.08,1.42-4.93,1.42-8.52v-85.4c0-5.05-1.07-8.55-3.22-10.51-1.96-1.77-5.55-2.84-10.79-3.22v-3.69h46.11v3.69c-8.52,0-13.48,2.34-14.87,7.01-.76,2.65-1.14,6.53-1.14,11.65v33.71h75.94v-38.16c0-5.49-1.17-9.28-3.5-11.36-2.21-1.89-6.12-2.84-11.74-2.84h-3.69v-3.69h49.8v3.69c-7.51,.25-11.99,2.4-13.44,6.44-.89,2.34-1.33,5.49-1.33,9.47v80.48c0,8.65,2.08,13.79,6.25,15.43,2.21,.95,5.3,1.42,9.28,1.42h1.99v3.69Z"/><path class="b" d="M525.76,290.64l.48,.15c-.15,3.1-.27,6.21-.49,9.31-.04,.5-.53,.97-.83,1.44-1.55,2.41-3.1,4.81-4.66,7.21l.39,.26c1.7-2.18,3.39-4.37,5.38-6.94,.16,2.41,.12,4.08-1.47,5.6-1.67,1.6-3.03,3.54-4.45,5.38-.43,.56-.62,1.3-.54,2.17,1.79-2.15,3.59-4.3,5.38-6.45l.42,.13c-.35,3.01-.65,6.03-1.07,9.03-.32,2.24-.62,4.51-1.28,6.66-.44,1.42-1.19,3.09-2.33,3.88-3.49,2.43-4.63,5.59-4.92,9.75-.48,6.97-1.68,13.89-2.59,20.83-.03,.23-.15,.46-.29,.85-1.91-2.06-3.15-4.01-2.47-6.97,.85-3.73,1.24-7.57,1.85-11.56-2.45-.33-3.52-1.82-4.17-4-.4-1.33-1.51-2.45-2.29-3.68-2.45-3.82-3.55-6.58-4.18-10.52,.43,.17,.8,.33,1.47,.6-1.92-4.19-3.73-8.16-5.56-12.17,2.31,1.11,4.55,2.45,6.29,4.54,1.7,2.05,3.59,3.87,6.52,4.39-2.12-1.95-4.16-3.99-6.37-5.83-3.1-2.58-6.56-4.8-8.12-9.44,5.18,3.41,10,6.59,15.27,10.06-1.43-1.69-2.53-2.99-3.64-4.3l.21-.24c.98,.87,1.95,1.74,2.93,2.6l.23-.22c-2.6-3.27-5.14-6.6-7.82-9.8-2.15-2.57-3.63-5.25-4.02-8.74-.33-2.88-1.67-5.64-2.58-8.45-.25-.75-.6-1.46-1.06-2.58,2.71,1.29,5.05,2.41,7.84,3.75-1.16-1.73-1.93-3.1-2.91-4.29-3-3.64-3.21-7.76-2.47-12.17,.21-1.27-.2-2.66-.42-3.97-.27-1.61-.71-3.18-.94-4.79-.26-1.79-.37-3.59-.55-5.51,.22,.03,.55,.09,.99,.15-.26-.88-.48-1.63-.8-2.74,2.43,1.19,4.53,2.23,6.63,3.26l.13-.25c-2.08-1.45-4.21-2.83-6.22-4.38-.61-.47-1.09-1.35-1.24-2.12-.44-2.29-.68-4.61-1.02-7.09,.44-.04,.83-.07,1.36-.12-.29-1.71-.85-3.41-.81-5.11,.18-7.7-1.61-15.13-2.85-22.65-.16-.98-.18-2.02-.09-3.01,.25-2.62,2.25-3.66,4.38-2.12,6.44,4.67,12.92,9.35,16.35,16.94,2,4.41,3.95,8.83,5.93,13.25,.3,.68,.61,1.36,1,2.21,.42-.36,.73-.61,1.03-.87h0c2.21,4.05,3.34,8.26,3.34,12.84,0,.65-.02,1.32-.07,1.99-.37,5.43-2.68,9.88-5.75,14.14l.39,.33c.92-.93,1.87-1.84,2.76-2.8,.94-1.01,1.83-2.08,3.12-3.54,.42,1.28,1.15,2.35,.99,3.26-.66,3.65,.23,7.13,.68,10.68,.33,2.55,.33,5.15,.33,7.73,0,.67-.46,1.41-.87,2.01-1.44,2.12-2.94,4.19-4.28,6.38,1.48-1.45,2.96-2.89,4.44-4.34Z"/></svg>