<?xml version="1.0" encoding="UTF-8"?><svg id="a" xmlns="http://www.w3.org/2000/svg" viewBox="0 0 841.89 595.28"><defs><style>.b{fill:#1d1d1b;}</style></defs><path class="b" d="M433.83,296.12c.31,.1,.62,.19,.93,.29-.29,6.01-.52,12.03-.94,18.04-.07,.97-1.02,1.88-1.61,2.8-3,4.67-6.02,9.33-9.02,13.99,.25,.17,.5,.33,.75,.5,3.29-4.24,6.57-8.47,10.44-13.45,.32,4.67,.22,7.91-2.85,10.86-3.24,3.11-5.87,6.85-8.63,10.43-.83,1.08-1.19,2.53-1.06,4.21,3.48-4.17,6.95-8.33,10.43-12.5,.27,.08,.54,.16,.81,.24-.68,5.83-1.25,11.68-2.08,17.5-.62,4.34-1.21,8.74-2.49,12.91-.85,2.75-2.31,5.98-4.52,7.52-6.77,4.71-8.98,10.83-9.54,18.91-.93,13.51-3.26,26.93-5.01,40.39-.06,.45-.3,.88-.57,1.65-3.7-4-6.1-7.77-4.79-13.51,1.65-7.24,2.4-14.68,3.59-22.41-4.75-.65-6.83-3.53-8.09-7.76-.77-2.59-2.92-4.76-4.44-7.13-4.74-7.41-6.88-12.76-8.11-20.39,.83,.34,1.55,.63,2.84,1.16-3.71-8.13-7.22-15.82-10.77-23.6,4.49,2.14,8.83,4.74,12.2,8.81,3.3,3.98,6.97,7.5,12.64,8.5-4.1-3.78-8.06-7.74-12.34-11.3-6.01-5-12.71-9.3-15.75-18.31,10.04,6.62,19.39,12.78,29.6,19.51-2.77-3.27-4.91-5.81-7.05-8.34,.13-.15,.27-.3,.4-.46,1.89,1.68,3.78,3.37,5.67,5.05l.45-.44c-5.04-6.34-9.97-12.79-15.17-19-4.17-4.98-7.03-10.18-7.8-16.94-.63-5.58-3.23-10.94-5.01-16.38-.48-1.45-1.16-2.84-2.05-5,5.25,2.51,9.78,4.67,15.2,7.26-2.25-3.36-3.73-6.01-5.64-8.32-5.81-7.06-6.22-15.05-4.78-23.6,.41-2.46-.38-5.15-.81-7.71-.52-3.11-1.37-6.17-1.82-9.29-.5-3.46-.71-6.97-1.07-10.68,.42,.07,1.07,.17,1.91,.3-.5-1.71-.92-3.17-1.55-5.32,4.71,2.31,8.78,4.32,12.86,6.32l.26-.49c-4.04-2.8-8.17-5.48-12.05-8.49-1.18-.91-2.12-2.62-2.41-4.11-.85-4.43-1.32-8.94-1.98-13.75,.86-.07,1.61-.14,2.64-.23-.56-3.31-1.65-6.62-1.57-9.9,.36-14.94-3.13-29.34-5.52-43.91-.31-1.91-.35-3.91-.17-5.84,.47-5.07,4.36-7.11,8.48-4.11,12.48,9.06,25.04,18.13,31.69,32.84,3.87,8.55,7.67,17.13,11.5,25.69,.59,1.32,1.19,2.64,1.93,4.29,.82-.69,1.41-1.19,1.99-1.68h0c4.28,7.85,6.47,16.01,6.48,24.9,0,1.27-.04,2.55-.13,3.85-.73,10.53-5.2,19.16-11.16,27.41,.25,.21,.51,.42,.76,.64,1.79-1.8,3.62-3.57,5.35-5.42,1.83-1.97,3.56-4.03,6.04-6.86,.8,2.48,2.23,4.56,1.92,6.32-1.29,7.08,.44,13.83,1.32,20.72,.63,4.95,.65,9.99,.65,14.98,0,1.31-.9,2.74-1.69,3.9-2.79,4.11-5.71,8.12-8.31,12.36,2.87-2.81,5.74-5.61,8.61-8.42Z"/></svg>